/* XPM */
static char *greek[] = {
/* columns rows colors chars-per-pixel */
"16 16 39 1 ",
"  c #015E86",
". c #19739B",
"X c #19749B",
"o c #0B76A9",
"O c #0F7CAD",
"+ c #137EAE",
"@ c #137FAE",
"# c #1A7DAD",
"$ c #237FA9",
"% c #287FAC",
"& c #1780B0",
"* c #1881B0",
"= c #1D85B2",
"- c #2A84AC",
"; c #2E80B0",
": c #2689B5",
"> c #3289B5",
", c #3E8AB6",
"< c #3E8FB9",
"1 c #3B93B9",
"2 c #4191BA",
"3 c #4193BB",
"4 c #4196BD",
"5 c #4198BE",
"6 c #7A9AA8",
"7 c #499CC1",
"8 c #5BA6C7",
"9 c #71A9C9",
"0 c #72AECC",
"q c #9BC0D0",
"w c #AECCD9",
"e c #D7D7D7",
"r c #C3DAE4",
"t c #C4DAE4",
"y c #E7E7E7",
"u c #F6F6F6",
"i c gray99",
"p c gray100",
"a c None",
/* pixels */
"aaaaaaaaaaaaaaaa",
"aaaaaaaaaaaaaaaa",
"a52pp2544444444a",
"a<9pp90rrrrrtrwa",
"appppppppppppppa",
"apppppp77777781a",
"a%,pp;>pppppppua",
"a$#ppoO&*****:-a",
"ayppppppppppppya",
"a.=@@@@@@@@@@=Xa",
"aeppppppppppppea",
"a6qqqqqqqqqqqq6a",
"a              a",
"aaaaaaaaaaaaaaaa",
"aaaaaaaaaaaaaaaa",
"aaaaaaaaaaaaaaaa"
};
