/* XPM */
static char *us[] = {
/* columns rows colors chars-per-pixel */
"16 16 46 1 ",
"  c #0E0E6D",
". c #10106F",
"X c #1B1B6B",
"o c #1F1F78",
"O c #2C2C7D",
"+ c #BA0114",
"@ c #C5081B",
"# c #E9081F",
"$ c #D5172A",
"% c #EA0920",
"& c #EA1026",
"* c #EB162C",
"= c #E4283C",
"- c #ED2E42",
"; c #ED384B",
": c #EE3E51",
"> c #EF4153",
", c #F05060",
"< c #F26371",
"1 c #333384",
"2 c #3C3C89",
"3 c #43438D",
"4 c #45458F",
"5 c #525296",
"6 c #525397",
"7 c #535397",
"8 c #555598",
"9 c #7474AB",
"0 c #7C7CB7",
"q c #7D7DB7",
"w c #8080B1",
"e c #8383BB",
"r c #8F8FC0",
"t c #9090C2",
"y c #9898C6",
"u c #9999C7",
"i c #9A9AC7",
"p c #A1A1CB",
"a c #ABABD1",
"s c #B3B3D5",
"d c #D0D0D0",
"f c #DFDFDF",
"g c #EFEFEF",
"h c gray99",
"j c gray100",
"k c None",
/* pixels */
"kkkkkkkkkkkkkkkk",
"kkkkkkkkkkkkkkkk",
"k4i4u4u4u>>>>>>k",
"ki9s9s9s9jjjjjjk",
"k2a6p6p6p,,,,<;k",
"kr8i3i3u3jjjjjjk",
"kOi1r1t1t----:=k",
"kwo0.q.q.jjjjjgk",
"kXe 0 0 0%%%%*$k",
"kfjjjjjjjjjjjjfk",
"k@&##########&@k",
"kdjjjjjjjjjjjjdk",
"k++++++++++++++k",
"kkkkkkkkkkkkkkkk",
"kkkkkkkkkkkkkkkk",
"kkkkkkkkkkkkkkkk"
};
